<mxfile host="app.diagrams.net" modified="2023-06-14T11:31:57.950Z" agent="Mozilla/5.0 (Windows NT 10.0; Win64; x64) AppleWebKit/537.36 (KHTML, like Gecko) Chrome/114.0.0.0 Safari/537.36" etag="Xe-Hp00I486VbD-Z-ghW" version="21.3.8" type="device">
  <diagram name="Side-1" id="yixSeiIkhmzTZ8vDJeVZ">
    <mxGraphModel dx="1290" dy="541" grid="1" gridSize="10" guides="1" tooltips="1" connect="1" arrows="1" fold="1" page="1" pageScale="1" pageWidth="827" pageHeight="1169" math="0" shadow="0">
      <root>
        <mxCell id="0" />
        <mxCell id="1" parent="0" />
        <mxCell id="wmHp988qh30AybTgUVfr-9" value="APIController" style="swimlane;fontStyle=0;childLayout=stackLayout;horizontal=1;startSize=26;fillColor=none;horizontalStack=0;resizeParent=1;resizeParentMax=0;resizeLast=0;collapsible=1;marginBottom=0;whiteSpace=wrap;html=1;" parent="1" vertex="1">
          <mxGeometry x="362" y="40" width="140" height="90" as="geometry" />
        </mxCell>
        <mxCell id="wmHp988qh30AybTgUVfr-10" value="+ Get();&lt;br&gt;&lt;br&gt;+ Insert();" style="text;strokeColor=none;fillColor=none;align=left;verticalAlign=top;spacingLeft=4;spacingRight=4;overflow=hidden;rotatable=0;points=[[0,0.5],[1,0.5]];portConstraint=eastwest;whiteSpace=wrap;html=1;" parent="wmHp988qh30AybTgUVfr-9" vertex="1">
          <mxGeometry y="26" width="140" height="64" as="geometry" />
        </mxCell>
        <mxCell id="wmHp988qh30AybTgUVfr-13" value="DALManager" style="swimlane;fontStyle=0;childLayout=stackLayout;horizontal=1;startSize=26;fillColor=none;horizontalStack=0;resizeParent=1;resizeParentMax=0;resizeLast=0;collapsible=1;marginBottom=0;whiteSpace=wrap;html=1;" parent="1" vertex="1">
          <mxGeometry x="344" y="270" width="176" height="104" as="geometry" />
        </mxCell>
        <mxCell id="wmHp988qh30AybTgUVfr-14" value="&amp;nbsp;+ GetProject();" style="text;strokeColor=none;fillColor=none;align=left;verticalAlign=top;spacingLeft=4;spacingRight=4;overflow=hidden;rotatable=0;points=[[0,0.5],[1,0.5]];portConstraint=eastwest;whiteSpace=wrap;html=1;" parent="wmHp988qh30AybTgUVfr-13" vertex="1">
          <mxGeometry y="26" width="176" height="26" as="geometry" />
        </mxCell>
        <mxCell id="wmHp988qh30AybTgUVfr-15" value="+ GetCv();" style="text;strokeColor=none;fillColor=none;align=left;verticalAlign=top;spacingLeft=4;spacingRight=4;overflow=hidden;rotatable=0;points=[[0,0.5],[1,0.5]];portConstraint=eastwest;whiteSpace=wrap;html=1;" parent="wmHp988qh30AybTgUVfr-13" vertex="1">
          <mxGeometry y="52" width="176" height="26" as="geometry" />
        </mxCell>
        <mxCell id="wmHp988qh30AybTgUVfr-16" value="+ InsetContactFormular();" style="text;strokeColor=none;fillColor=none;align=left;verticalAlign=top;spacingLeft=4;spacingRight=4;overflow=hidden;rotatable=0;points=[[0,0.5],[1,0.5]];portConstraint=eastwest;whiteSpace=wrap;html=1;" parent="wmHp988qh30AybTgUVfr-13" vertex="1">
          <mxGeometry y="78" width="176" height="26" as="geometry" />
        </mxCell>
        <mxCell id="wmHp988qh30AybTgUVfr-25" value="Cv" style="swimlane;fontStyle=0;childLayout=stackLayout;horizontal=1;startSize=26;fillColor=none;horizontalStack=0;resizeParent=1;resizeParentMax=0;resizeLast=0;collapsible=1;marginBottom=0;whiteSpace=wrap;html=1;" parent="1" vertex="1">
          <mxGeometry x="120" y="374" width="140" height="52" as="geometry" />
        </mxCell>
        <mxCell id="wmHp988qh30AybTgUVfr-38" value="" style="endArrow=diamondThin;endFill=0;endSize=24;html=1;rounded=0;entryX=0;entryY=0.5;entryDx=0;entryDy=0;" parent="wmHp988qh30AybTgUVfr-25" target="wmHp988qh30AybTgUVfr-15" edge="1">
          <mxGeometry width="160" relative="1" as="geometry">
            <mxPoint x="60" y="-4" as="sourcePoint" />
            <mxPoint x="220" y="-4" as="targetPoint" />
            <Array as="points">
              <mxPoint x="60" y="-39" />
            </Array>
          </mxGeometry>
        </mxCell>
        <mxCell id="wmHp988qh30AybTgUVfr-29" value="Project" style="swimlane;fontStyle=0;childLayout=stackLayout;horizontal=1;startSize=26;fillColor=none;horizontalStack=0;resizeParent=1;resizeParentMax=0;resizeLast=0;collapsible=1;marginBottom=0;whiteSpace=wrap;html=1;" parent="1" vertex="1">
          <mxGeometry x="362" y="440" width="140" height="52" as="geometry" />
        </mxCell>
        <mxCell id="wmHp988qh30AybTgUVfr-33" value="Contact" style="swimlane;fontStyle=0;childLayout=stackLayout;horizontal=1;startSize=26;fillColor=none;horizontalStack=0;resizeParent=1;resizeParentMax=0;resizeLast=0;collapsible=1;marginBottom=0;whiteSpace=wrap;html=1;" parent="1" vertex="1">
          <mxGeometry x="570" y="374" width="140" height="52" as="geometry" />
        </mxCell>
        <mxCell id="wmHp988qh30AybTgUVfr-37" value="" style="endArrow=diamondThin;endFill=0;endSize=24;html=1;rounded=0;entryX=1;entryY=0.5;entryDx=0;entryDy=0;" parent="wmHp988qh30AybTgUVfr-33" target="wmHp988qh30AybTgUVfr-15" edge="1">
          <mxGeometry width="160" relative="1" as="geometry">
            <mxPoint x="60" y="-4" as="sourcePoint" />
            <mxPoint x="220" y="-4" as="targetPoint" />
            <Array as="points">
              <mxPoint x="60" y="-39" />
            </Array>
          </mxGeometry>
        </mxCell>
        <mxCell id="wmHp988qh30AybTgUVfr-39" value="" style="endArrow=diamondThin;endFill=0;endSize=24;html=1;rounded=0;entryX=0.461;entryY=1.177;entryDx=0;entryDy=0;entryPerimeter=0;exitX=0.5;exitY=0;exitDx=0;exitDy=0;" parent="1" source="wmHp988qh30AybTgUVfr-29" target="wmHp988qh30AybTgUVfr-16" edge="1">
          <mxGeometry width="160" relative="1" as="geometry">
            <mxPoint x="420" y="440" as="sourcePoint" />
            <mxPoint x="580" y="440" as="targetPoint" />
          </mxGeometry>
        </mxCell>
        <mxCell id="wmHp988qh30AybTgUVfr-40" value="Use" style="endArrow=open;endSize=12;dashed=1;html=1;rounded=0;entryX=0.5;entryY=0;entryDx=0;entryDy=0;" parent="1" target="wmHp988qh30AybTgUVfr-13" edge="1">
          <mxGeometry x="-0.705" y="19" width="160" relative="1" as="geometry">
            <mxPoint x="430" y="130" as="sourcePoint" />
            <mxPoint x="590" y="130" as="targetPoint" />
            <Array as="points">
              <mxPoint x="432" y="190" />
            </Array>
            <mxPoint as="offset" />
          </mxGeometry>
        </mxCell>
        <mxCell id="wmHp988qh30AybTgUVfr-41" value="&amp;lt;Dependency Injection&amp;gt;" style="text;html=1;align=center;verticalAlign=middle;resizable=0;points=[];autosize=1;strokeColor=none;fillColor=none;" parent="1" vertex="1">
          <mxGeometry x="344" y="170" width="150" height="30" as="geometry" />
        </mxCell>
      </root>
    </mxGraphModel>
  </diagram>
</mxfile>
